<?xml version="1.0" standalone="no"?>
<!DOCTYPE svg PUBLIC "-//W3C//DTD SVG 20010904//EN"
 "http://www.w3.org/TR/2001/REC-SVG-20010904/DTD/svg10.dtd">
<svg version="1.0" xmlns="http://www.w3.org/2000/svg"
 width="96.000000pt" height="96.000000pt" viewBox="0 0 96.000000 96.000000"
 preserveAspectRatio="xMidYMid meet">
<metadata>
Created by potrace 1.14, written by Peter Selinger 2001-2017
</metadata>
<g transform="translate(0.000000,96.000000) scale(0.100000,-0.100000)"
fill="#000000" stroke="none">
<path d="M464 832 c-6 -4 -15 -18 -19 -31 l-8 -25 -14 27 c-7 15 -20 27 -28
27 -17 0 -33 -29 -30 -53 3 -16 1 -15 -22 2 -31 25 -53 17 -53 -20 0 -26 -2
-28 -30 -23 -35 7 -51 -17 -31 -47 10 -17 8 -19 -23 -19 -42 0 -52 -20 -25
-53 17 -23 18 -25 2 -22 -46 7 -70 -34 -33 -57 23 -14 26 -28 8 -28 -7 0 -19
-4 -27 -9 -19 -12 -4 -51 20 -51 10 0 19 -4 19 -10 0 -5 -4 -10 -10 -10 -5 0
-15 -10 -21 -22 -9 -18 -8 -24 6 -34 9 -7 26 -11 37 -9 19 4 19 3 5 -13 -8 -9
-17 -26 -19 -37 -2 -17 3 -20 33 -20 34 0 35 -1 25 -27 -15 -39 4 -56 43 -41
28 10 29 10 21 -12 -6 -15 -5 -29 3 -39 11 -14 15 -14 41 -1 32 17 36 18 35 7
-8 -47 24 -67 52 -31 l19 24 6 -22 c12 -43 58 -39 69 5 l7 27 14 -27 c8 -16
21 -28 29 -28 18 0 33 29 29 53 -2 17 -1 17 14 4 9 -8 26 -17 37 -19 17 -2 21
4 25 37 3 25 8 35 13 27 11 -17 46 -15 54 4 3 8 1 25 -4 37 -10 21 -9 22 22
19 41 -5 51 17 24 51 -17 23 -18 25 -2 22 24 -3 53 13 53 30 0 8 -10 21 -22
29 l-21 15 26 12 c39 18 32 58 -11 62 -20 1 -20 2 4 24 13 12 24 27 24 33 0
14 -48 32 -63 23 -7 -3 -5 2 5 13 9 10 18 28 20 39 2 17 -3 20 -33 20 -34 0
-35 1 -25 27 15 39 -4 56 -43 41 -28 -10 -29 -10 -21 12 6 15 5 29 -3 39 -11
14 -15 14 -41 1 -32 -17 -36 -18 -35 -7 8 47 -25 67 -52 31 -17 -23 -18 -23
-25 -4 -7 19 -23 35 -34 35 -3 0 -10 -4 -16 -8z"/>
</g>
</svg>
